<?xml version="1.0" encoding="utf-8"?>
<!-- Generator: Adobe Illustrator 16.0.0, SVG Export Plug-In . SVG Version: 6.00 Build 0)  -->
<!DOCTYPE svg PUBLIC "-//W3C//DTD SVG 1.1//EN" "http://www.w3.org/Graphics/SVG/1.1/DTD/svg11.dtd">
<svg version="1.1" id="图层_1" xmlns:sketch="http://www.bohemiancoding.com/sketch/ns"
	 xmlns="http://www.w3.org/2000/svg" xmlns:xlink="http://www.w3.org/1999/xlink" x="0px" y="0px" width="30px" height="30px"
	 viewBox="0 0 30 30" enable-background="new 0 0 30 30" xml:space="preserve">
<title>Imported Layers</title>
<desc>Created with Sketch.</desc>
<g id="product" sketch:type="MSPage">
	<g id="Imported-Layers" sketch:type="MSLayerGroup">
		<path id="Fill-1" sketch:type="MSShapeGroup" fill="#fff" d="M15.168,0.772C7.195,0.773,0.731,7.236,0.731,15.21
			c0,7.974,6.464,14.437,14.437,14.437c7.975,0,14.438-6.463,14.438-14.437h-1c0,3.712-1.504,7.067-3.936,9.501
			c-2.434,2.432-5.79,3.936-9.502,3.936S8.1,27.143,5.667,24.711c-2.433-2.434-3.936-5.789-3.936-9.501
			c0-3.713,1.503-7.069,3.936-9.502c2.433-2.432,5.789-3.935,9.501-3.936c3.712,0.001,7.068,1.504,9.502,3.936
			c2.432,2.433,3.936,5.789,3.936,9.502h1C29.605,7.236,23.143,0.773,15.168,0.772"/>
		<path id="Fill-1_1_" sketch:type="MSShapeGroup" fill="#fff" d="M15.168,1.646C7.679,1.647,1.605,7.719,1.605,15.209
			c0,7.491,6.073,13.563,13.563,13.563c7.491,0,13.563-6.071,13.563-13.563h-0.939c0,3.488-1.413,6.64-3.697,8.926
			c-2.286,2.284-5.438,3.697-8.926,3.697c-3.487,0-6.64-1.413-8.925-3.697c-2.285-2.286-3.698-5.438-3.698-8.926
			c0-3.488,1.413-6.64,3.698-8.926c2.285-2.285,5.438-3.696,8.925-3.697c3.487,0.001,6.64,1.413,8.926,3.697
			c2.284,2.286,3.697,5.438,3.697,8.926h0.939C28.73,7.719,22.659,1.647,15.168,1.646"/>
		<path id="Fill-2" sketch:type="MSShapeGroup" fill="#fff" d="M11.106,8.02c-0.375,0-0.746,0.173-0.977,0.469
			C9.89,8.787,9.786,9.172,9.786,9.594v7.531h1V9.594c-0.001-0.258,0.065-0.41,0.122-0.479c0.06-0.067,0.099-0.09,0.215-0.095h0.002
			c0.092,0,0.236,0.033,0.416,0.137l3.51,2.027c0.829,0.478,2.184,1.261,3.012,1.739l3.511,2.026
			c0.319,0.189,0.372,0.355,0.372,0.436c0,0.082-0.055,0.249-0.372,0.438v-0.001l-3.509,2.025c-0.83,0.479-2.185,1.262-3.014,1.74
			l-3.51,2.026c-0.179,0.104-0.324,0.137-0.417,0.137h-0.002c-0.115-0.005-0.154-0.028-0.214-0.095
			c-0.057-0.069-0.123-0.221-0.122-0.479v-4.053h-1v4.053c0,0.422,0.104,0.807,0.343,1.104c0.231,0.295,0.602,0.469,0.977,0.469
			h0.016c0.311,0,0.621-0.099,0.92-0.271l3.51-2.026c0.828-0.479,2.183-1.261,3.011-1.739l3.511-2.027h0.001
			c0.51-0.289,0.869-0.754,0.869-1.303c0-0.548-0.36-1.012-0.87-1.302l-3.511-2.026c-0.828-0.478-2.183-1.261-3.011-1.74
			l-3.51-2.026v0.001c-0.299-0.173-0.609-0.272-0.919-0.272H11.106"/>
		<path id="Fill-2_1_" sketch:type="MSShapeGroup" fill="#fff" d="M11.655,8.79c-0.336,0-0.668,0.155-0.875,0.42
			c-0.213,0.267-0.307,0.611-0.307,0.989v6.744h0.896v-6.744c-0.001-0.231,0.059-0.367,0.109-0.429
			c0.053-0.061,0.088-0.081,0.192-0.085h0.001c0.083,0,0.212,0.029,0.373,0.123l3.143,1.815c0.743,0.428,1.956,1.129,2.697,1.557
			l3.145,1.814c0.285,0.17,0.333,0.318,0.333,0.39c0,0.074-0.049,0.223-0.333,0.393v-0.001l-3.143,1.814
			c-0.743,0.429-1.956,1.13-2.699,1.558l-3.143,1.814c-0.161,0.093-0.29,0.123-0.373,0.123H11.67
			c-0.103-0.005-0.138-0.025-0.191-0.085c-0.051-0.063-0.11-0.197-0.109-0.429v-3.629h-0.896v3.629c0,0.378,0.094,0.723,0.307,0.989
			c0.206,0.264,0.539,0.42,0.875,0.42h0.015c0.279,0,0.556-0.089,0.824-0.242l3.143-1.814c0.741-0.43,1.954-1.129,2.696-1.558
			l3.144-1.815h0.001c0.456-0.259,0.778-0.676,0.778-1.167c0-0.491-0.322-0.906-0.779-1.166l-3.144-1.814
			c-0.742-0.428-1.955-1.129-2.696-1.558l-3.143-1.814v0.001c-0.268-0.155-0.545-0.244-0.823-0.244H11.655"/>
	</g>
</g>
</svg>
